<svg width="19" height="19" viewBox="0 0 19 19" fill="none" xmlns="http://www.w3.org/2000/svg">
<path d="M1.95068 8.12277C1.95068 4.91367 4.55281 2.31445 7.76263 2.31445H10.9325C14.1924 2.31445 16.8345 4.95724 16.8345 8.21715C16.8345 10.3662 15.6677 12.3411 13.788 13.3793L7.94051 16.6174V13.9383H7.89186C4.63195 14.0109 1.95068 11.3899 1.95068 8.12277ZM7.76263 3.76653C5.35435 3.76653 3.40276 5.71958 3.40276 8.12277C3.40276 10.5695 5.41389 12.5371 7.85919 12.4863L8.11403 12.479H9.39258V14.1489L13.0859 12.1087C14.5024 11.3246 15.3824 9.83622 15.3824 8.21715C15.3824 5.75588 13.3902 3.76653 10.9325 3.76653H7.76263Z" fill="#FFFFFF"/>
</svg>
