<svg width="15" height="14" viewBox="0 0 15 14" fill="none" xmlns="http://www.w3.org/2000/svg">
<path d="M10.7675 1.65267C9.88028 1.60911 8.82244 2.02295 7.94321 3.22092L7.35875 4.0123L6.77356 3.22092C5.8936 2.02295 4.83503 1.60911 3.94781 1.65267C3.04535 1.7035 2.24235 2.21898 1.83504 3.03941C1.43427 3.85257 1.37546 5.05779 2.18281 6.53891C2.96258 7.96921 4.54752 9.6391 7.35875 11.338C10.1685 9.6391 11.7527 7.96921 12.5325 6.53891C13.3391 5.05779 13.2803 3.85257 12.8788 3.03941C12.4715 2.21898 11.6692 1.7035 10.7675 1.65267ZM13.8074 7.23591C12.8265 9.03649 10.9025 10.9532 7.72394 12.8046L7.35875 13.0224L6.99282 12.8046C3.8135 10.9532 1.88949 9.03649 0.907163 7.23591C-0.0802495 5.42081 -0.116551 3.70736 0.53398 2.39323C1.17798 1.09362 2.4558 0.280459 3.87448 0.207855C5.07317 0.142511 6.31978 0.614437 7.35802 1.66719C8.39553 0.614437 9.64214 0.142511 10.8401 0.207855C12.2588 0.280459 13.5366 1.09362 14.1806 2.39323C14.8311 3.70736 14.7948 5.42081 13.8074 7.23591Z" fill="#FFFFFF"/>
</svg>
