<svg width="19" height="19" viewBox="0 0 19 19" fill="none" xmlns="http://www.w3.org/2000/svg">
<g clip-path="url(#clip0_2003_1884)">
<path d="M3.92972 3.67944L7.14752 6.68524L6.15721 7.74526L4.65576 6.34401V12.479C4.65576 13.2777 5.30629 13.9311 6.10784 13.9311H10.1011V15.3832H6.10784C4.50402 15.3832 3.20368 14.0836 3.20368 12.479V6.34401L1.70223 7.74526L0.711914 6.68524L3.92972 3.67944ZM12.6422 5.21865H8.64897V3.76657H12.6422C14.246 3.76657 15.5463 5.06618 15.5463 6.67072V12.8058L17.0478 11.4045L18.0381 12.4645L14.8203 15.4703L11.6025 12.4645L12.5928 11.4045L14.0943 12.8058V6.67072C14.0943 5.87208 13.4437 5.21865 12.6422 5.21865Z" fill="#FFFFFF"/>
</g>
<defs>
<clipPath id="clip0_2003_1884">
<rect width="17.4249" height="17.4249" fill="white" transform="translate(0.662109 0.862549)"/>
</clipPath>
</defs>
</svg>
